<svg version="1.1" viewBox="0.0 0.0 395.0 371.0" fill="none" stroke="none" stroke-linecap="square" stroke-miterlimit="10" width="395" height="371" xmlns:xlink="http://www.w3.org/1999/xlink" xmlns="http://www.w3.org/2000/svg"><path fill="#ffffff" d="M0 0L395.0 0L395.0 371.0L0 371.0L0 0Z" fill-rule="nonzero"/><path fill="#ffffff" d="M18.55 54.916668L376.44998 54.916668L376.44998 352.44998L18.55 352.44998L18.55 54.916668Z" fill-rule="nonzero"/><path stroke="#cccccc" stroke-width="1.0" stroke-linecap="butt" d="M198.0 204.0C198.0 204.0 198.0 204.0 198.0 204.0C198.0 204.0 198.0 204.0 198.0 204.0C198.0 204.0 198.0 204.0 198.0 204.0C198.0 204.0 198.0 204.0 198.0 204.0" fill-rule="nonzero"/><path fill="#000000" d="M195.0625 196.04688L195.0625 197.35938Q195.0625 198.40625 194.875 199.125Q194.6875 199.84375 194.32812 200.28125Q193.98438 200.71875 193.48438 200.92188Q193.0 201.125 192.375 201.125Q191.89062 201.125 191.46875 201.0Q191.04688 200.875 190.71875 200.60938Q190.39062 200.32812 190.15625 199.89062Q189.92188 199.45312 189.79688 198.82812Q189.67188 198.1875 189.67188 197.35938L189.67188 196.04688Q189.67188 195.0 189.85938 194.29688Q190.0625 193.59375 190.40625 193.15625Q190.76562 192.71875 191.25 192.53125Q191.75 192.34375 192.35938 192.34375Q192.85938 192.34375 193.28125 192.46875Q193.70312 192.59375 194.03125 192.85938Q194.35938 193.10938 194.57812 193.54688Q194.8125 193.96875 194.9375 194.59375Q195.0625 195.21875 195.0625 196.04688ZM193.96875 197.53125L193.96875 195.875Q193.96875 195.29688 193.90625 194.85938Q193.84375 194.42188 193.70312 194.10938Q193.57812 193.79688 193.375 193.60938Q193.1875 193.42188 192.9375 193.32812Q192.6875 193.23438 192.35938 193.23438Q191.98438 193.23438 191.67188 193.375Q191.375 193.51562 191.17188 193.82812Q190.96875 194.14062 190.85938 194.65625Q190.76562 195.15625 190.76562 195.875L190.76562 197.53125Q190.76562 198.10938 190.82812 198.54688Q190.90625 198.98438 191.03125 199.3125Q191.17188 199.625 191.35938 199.82812Q191.5625 200.03125 191.8125 200.125Q192.0625 200.21875 192.375 200.21875Q192.78125 200.21875 193.07812 200.07812Q193.375 199.92188 193.57812 199.59375Q193.78125 199.26562 193.875 198.76562Q193.96875 198.25 193.96875 197.53125Z" fill-rule="nonzero"/><path stroke="#cccccc" stroke-width="1.0" stroke-linecap="butt" d="M221.35333 204.0C221.35333 191.10231 210.89769 180.64667 198.0 180.64667C185.10231 180.64667 174.64667 191.10231 174.64667 204.0C174.64667 216.89769 185.10231 227.35333 198.0 227.35333C210.89769 227.35333 221.35333 216.89769 221.35333 204.0" fill-rule="nonzero"/><path fill="#000000" d="M193.26562 169.06854L193.26562 177.64667L192.1875 177.64667L192.1875 170.42792L190.0 171.2248L190.0 170.24042L193.10938 169.06854L193.26562 169.06854Z" fill-rule="nonzero"/><path stroke="#cccccc" stroke-width="1.0" stroke-linecap="butt" d="M244.70667 204.0C244.70667 178.20462 223.79538 157.29333 198.0 157.29333C172.20462 157.29333 151.29333 178.20462 151.29333 204.0C151.29333 229.79538 172.20462 250.70667 198.0 250.70667C223.79538 250.70667 244.70667 229.79538 244.70667 204.0" fill-rule="nonzero"/><path fill="#000000" d="M195.29688 153.40271L195.29688 154.29333L189.71875 154.29333L189.71875 153.51208L192.51562 150.40271Q193.03125 149.82458 193.3125 149.43396Q193.59375 149.02771 193.70312 148.71521Q193.82812 148.38708 193.82812 148.05896Q193.82812 147.63708 193.65625 147.29333Q193.48438 146.94958 193.14062 146.74646Q192.8125 146.52771 192.32812 146.52771Q191.76562 146.52771 191.39062 146.76208Q191.01562 146.98083 190.82812 147.37146Q190.64062 147.76208 190.64062 148.26208L189.54688 148.26208Q189.54688 147.54333 189.85938 146.94958Q190.1875 146.35583 190.79688 145.99646Q191.42188 145.63708 192.32812 145.63708Q193.14062 145.63708 193.71875 145.93396Q194.29688 146.21521 194.59375 146.73083Q194.90625 147.23083 194.90625 147.91833Q194.90625 148.29333 194.78125 148.68396Q194.65625 149.05896 194.4375 149.44958Q194.21875 149.82458 193.92188 150.19958Q193.64062 150.55896 193.3125 150.91833L191.01562 153.40271L195.29688 153.40271Z" fill-rule="nonzero"/><path stroke="#cccccc" stroke-width="1.0" stroke-linecap="butt" d="M268.06 204.0C268.06 165.30693 236.69307 133.94 198.0 133.94C159.30693 133.94 127.94 165.30693 127.94 204.0C127.94 242.69307 159.30693 274.06 198.0 274.06C236.69307 274.06 268.06 242.69307 268.06 204.0" fill-rule="nonzero"/><path fill="#000000" d="M191.29688 126.14313L192.0625 126.14313Q192.64062 126.14313 193.0 125.95563Q193.375 125.7525 193.5625 125.42438Q193.75 125.09625 193.75 124.67438Q193.75 124.19 193.57812 123.86188Q193.42188 123.51813 193.09375 123.34625Q192.76562 123.17438 192.26562 123.17438Q191.79688 123.17438 191.45312 123.36188Q191.10938 123.53375 190.90625 123.86188Q190.71875 124.19 190.71875 124.64313L189.625 124.64313Q189.625 123.98688 189.95312 123.45563Q190.28125 122.92438 190.875 122.61188Q191.46875 122.28375 192.26562 122.28375Q193.03125 122.28375 193.60938 122.565Q194.1875 122.83063 194.51562 123.3775Q194.84375 123.90875 194.84375 124.70563Q194.84375 125.03375 194.6875 125.39313Q194.53125 125.7525 194.21875 126.08063Q193.90625 126.39313 193.40625 126.59625Q192.92188 126.79938 192.21875 126.79938L191.29688 126.79938L191.29688 126.14313ZM191.29688 127.03375L191.29688 126.3775L192.21875 126.3775Q193.03125 126.3775 193.5625 126.58063Q194.09375 126.76813 194.40625 127.09625Q194.71875 127.40875 194.84375 127.79938Q194.96875 128.17438 194.96875 128.565Q194.96875 129.15875 194.76562 129.6275Q194.5625 130.08063 194.1875 130.40875Q193.82812 130.72125 193.32812 130.89313Q192.84375 131.065 192.26562 131.065Q191.70312 131.065 191.21875 130.90875Q190.73438 130.73688 190.35938 130.44Q189.98438 130.14313 189.76562 129.70563Q189.5625 129.2525 189.5625 128.69L190.64062 128.69Q190.64062 129.1275 190.82812 129.47125Q191.03125 129.79938 191.39062 129.98688Q191.76562 130.15875 192.26562 130.15875Q192.76562 130.15875 193.125 129.98688Q193.48438 129.815 193.67188 129.47125Q193.875 129.11188 193.875 128.58063Q193.875 128.04938 193.65625 127.70563Q193.4375 127.36188 193.01562 127.20563Q192.60938 127.03375 192.0625 127.03375L191.29688 127.03375Z" fill-rule="nonzero"/><path stroke="#cccccc" stroke-width="1.0" stroke-linecap="butt" d="M291.41333 204.0C291.41333 152.40924 249.59076 110.58667 198.0 110.58667C146.40924 110.58667 104.58667 152.40924 104.58667 204.0C104.58667 255.59076 146.40924 297.41333 198.0 297.41333C249.59076 297.41333 291.41333 255.59076 291.41333 204.0" fill-rule="nonzero"/><path fill="#000000" d="M195.46875 104.71167L195.46875 105.602295L189.3125 105.602295L189.3125 104.96167L193.125 99.05542L194.01562 99.05542L193.0625 100.758545L190.54688 104.71167L195.46875 104.71167ZM194.28125 99.05542L194.28125 107.58667L193.20312 107.58667L193.20312 99.05542L194.28125 99.05542Z" fill-rule="nonzero"/><path stroke="#cccccc" stroke-width="1.0" stroke-linecap="butt" d="M314.76666 204.0C314.76666 139.51155 262.48846 87.23333 198.0 87.23333C133.51155 87.23333 81.23333 139.51155 81.23333 204.0C81.23333 268.48846 133.51155 320.76666 198.0 320.76666C262.48846 320.76666 314.76666 268.48846 314.76666 204.0" fill-rule="nonzero"/><path fill="#000000" d="M191.07812 80.17083L190.21875 79.95208L190.64062 75.70208L195.01562 75.70208L195.01562 76.70208L191.5625 76.70208L191.29688 79.030205Q191.53125 78.88958 191.89062 78.780205Q192.26562 78.655205 192.73438 78.655205Q193.3125 78.655205 193.78125 78.85833Q194.25 79.061455 194.57812 79.436455Q194.92188 79.811455 195.09375 80.342705Q195.26562 80.85833 195.26562 81.51458Q195.26562 82.123955 195.09375 82.63958Q194.9375 83.155205 194.59375 83.54583Q194.26562 83.92083 193.75 84.13958Q193.25 84.35833 192.5625 84.35833Q192.04688 84.35833 191.59375 84.217705Q191.14062 84.061455 190.76562 83.76458Q190.40625 83.467705 190.1875 83.030205Q189.96875 82.592705 189.90625 81.98333L190.9375 81.98333Q191.0 82.467705 191.20312 82.79583Q191.42188 83.123955 191.76562 83.29583Q192.10938 83.45208 192.5625 83.45208Q192.95312 83.45208 193.25 83.32708Q193.54688 83.186455 193.75 82.936455Q193.96875 82.686455 194.07812 82.32708Q194.1875 81.967705 194.1875 81.530205Q194.1875 81.123955 194.0625 80.780205Q193.95312 80.436455 193.73438 80.186455Q193.51562 79.92083 193.20312 79.780205Q192.89062 79.623955 192.46875 79.623955Q191.9375 79.623955 191.65625 79.780205Q191.375 79.92083 191.07812 80.17083Z" fill-rule="nonzero"/><path stroke="#cccccc" stroke-width="1.0" stroke-linecap="butt" d="M198.0 204.0L198.0 87.0" fill-rule="nonzero"/><path fill="#000000" d="M195.875 68.515625L198.03125 70.234375L197.28125 70.9375L195.14062 69.25L195.875 68.515625ZM198.0 64.96875L198.0 65.5Q198.0 66.46875 197.76562 67.234375Q197.53125 67.984375 197.07812 68.515625Q196.625 69.046875 195.98438 69.34375Q195.35938 69.625 194.57812 69.625Q193.82812 69.625 193.1875 69.34375Q192.5625 69.046875 192.10938 68.515625Q191.65625 67.984375 191.39062 67.234375Q191.14062 66.46875 191.14062 65.5L191.14062 64.96875Q191.14062 64.0 191.39062 63.25Q191.64062 62.484375 192.09375 61.953125Q192.5625 61.40625 193.1875 61.125Q193.8125 60.84375 194.57812 60.84375Q195.35938 60.84375 195.98438 61.125Q196.625 61.40625 197.0625 61.953125Q197.51562 62.484375 197.75 63.25Q198.0 64.0 198.0 64.96875ZM196.89062 65.5L196.89062 64.953125Q196.89062 64.1875 196.73438 63.609375Q196.57812 63.015625 196.28125 62.625Q195.98438 62.21875 195.54688 62.015625Q195.125 61.8125 194.57812 61.8125Q194.04688 61.8125 193.625 62.015625Q193.20312 62.21875 192.89062 62.625Q192.59375 63.015625 192.42188 63.609375Q192.26562 64.1875 192.26562 64.953125L192.26562 65.5Q192.26562 66.265625 192.42188 66.859375Q192.59375 67.453125 192.89062 67.859375Q193.20312 68.25 193.625 68.453125Q194.0625 68.65625 194.57812 68.65625Q195.14062 68.65625 195.5625 68.453125Q195.98438 68.25 196.28125 67.859375Q196.57812 67.453125 196.73438 66.859375Q196.89062 66.265625 196.89062 65.5ZM202.76562 60.921875L202.76562 69.5L201.6875 69.5L201.6875 62.28125L199.5 63.078125L199.5 62.09375L202.60938 60.921875L202.76562 60.921875Z" fill-rule="nonzero"/><path stroke="#cccccc" stroke-width="1.0" stroke-linecap="butt" d="M198.0 204.0L267.0 110.0" fill-rule="nonzero"/><path fill="#000000" d="M277.875 94.515625L280.03125 96.234375L279.28125 96.9375L277.14062 95.25L277.875 94.515625ZM280.0 90.96875L280.0 91.5Q280.0 92.46875 279.76562 93.234375Q279.53125 93.984375 279.07812 94.515625Q278.625 95.046875 277.98438 95.34375Q277.35938 95.625 276.57812 95.625Q275.82812 95.625 275.1875 95.34375Q274.5625 95.046875 274.10938 94.515625Q273.65625 93.984375 273.39062 93.234375Q273.14062 92.46875 273.14062 91.5L273.14062 90.96875Q273.14062 90.0 273.39062 89.25Q273.64062 88.484375 274.09375 87.953125Q274.5625 87.40625 275.1875 87.125Q275.8125 86.84375 276.57812 86.84375Q277.35938 86.84375 277.98438 87.125Q278.625 87.40625 279.0625 87.953125Q279.51562 88.484375 279.75 89.25Q280.0 90.0 280.0 90.96875ZM278.89062 91.5L278.89062 90.953125Q278.89062 90.1875 278.73438 89.609375Q278.57812 89.015625 278.28125 88.625Q277.98438 88.21875 277.54688 88.015625Q277.125 87.8125 276.57812 87.8125Q276.04688 87.8125 275.625 88.015625Q275.20312 88.21875 274.89062 88.625Q274.59375 89.015625 274.42188 89.609375Q274.26562 90.1875 274.26562 90.953125L274.26562 91.5Q274.26562 92.265625 274.42188 92.859375Q274.59375 93.453125 274.89062 93.859375Q275.20312 94.25 275.625 94.453125Q276.0625 94.65625 276.57812 94.65625Q277.14062 94.65625 277.5625 94.453125Q277.98438 94.25 278.28125 93.859375Q278.57812 93.453125 278.73438 92.859375Q278.89062 92.265625 278.89062 91.5ZM286.79688 94.609375L286.79688 95.5L281.21875 95.5L281.21875 94.71875L284.01562 91.609375Q284.53125 91.03125 284.8125 90.640625Q285.09375 90.234375 285.20312 89.921875Q285.32812 89.59375 285.32812 89.265625Q285.32812 88.84375 285.15625 88.5Q284.98438 88.15625 284.64062 87.953125Q284.3125 87.734375 283.82812 87.734375Q283.26562 87.734375 282.89062 87.96875Q282.51562 88.1875 282.32812 88.578125Q282.14062 88.96875 282.14062 89.46875L281.04688 89.46875Q281.04688 88.75 281.35938 88.15625Q281.6875 87.5625 282.29688 87.203125Q282.92188 86.84375 283.82812 86.84375Q284.64062 86.84375 285.21875 87.140625Q285.79688 87.421875 286.09375 87.9375Q286.40625 88.4375 286.40625 89.125Q286.40625 89.5 286.28125 89.890625Q286.15625 90.265625 285.9375 90.65625Q285.71875 91.03125 285.42188 91.40625Q285.14062 91.765625 284.8125 92.125L282.51562 94.609375L286.79688 94.609375Z" fill-rule="nonzero"/><path stroke="#cccccc" stroke-width="1.0" stroke-linecap="butt" d="M198.0 204.0L309.0 168.0" fill-rule="nonzero"/><path fill="#000000" d="M327.875 164.51562L330.03125 166.23438L329.28125 166.9375L327.14062 165.25L327.875 164.51562ZM330.0 160.96875L330.0 161.5Q330.0 162.46875 329.76562 163.23438Q329.53125 163.98438 329.07812 164.51562Q328.625 165.04688 327.98438 165.34375Q327.35938 165.625 326.57812 165.625Q325.82812 165.625 325.1875 165.34375Q324.5625 165.04688 324.10938 164.51562Q323.65625 163.98438 323.39062 163.23438Q323.14062 162.46875 323.14062 161.5L323.14062 160.96875Q323.14062 160.0 323.39062 159.25Q323.64062 158.48438 324.09375 157.95312Q324.5625 157.40625 325.1875 157.125Q325.8125 156.84375 326.57812 156.84375Q327.35938 156.84375 327.98438 157.125Q328.625 157.40625 329.0625 157.95312Q329.51562 158.48438 329.75 159.25Q330.0 160.0 330.0 160.96875ZM328.89062 161.5L328.89062 160.95312Q328.89062 160.1875 328.73438 159.60938Q328.57812 159.01562 328.28125 158.625Q327.98438 158.21875 327.54688 158.01562Q327.125 157.8125 326.57812 157.8125Q326.04688 157.8125 325.625 158.01562Q325.20312 158.21875 324.89062 158.625Q324.59375 159.01562 324.42188 159.60938Q324.26562 160.1875 324.26562 160.95312L324.26562 161.5Q324.26562 162.26562 324.42188 162.85938Q324.59375 163.45312 324.89062 163.85938Q325.20312 164.25 325.625 164.45312Q326.0625 164.65625 326.57812 164.65625Q327.14062 164.65625 327.5625 164.45312Q327.98438 164.25 328.28125 163.85938Q328.57812 163.45312 328.73438 162.85938Q328.89062 162.26562 328.89062 161.5ZM332.79688 160.70312L333.5625 160.70312Q334.14062 160.70312 334.5 160.51562Q334.875 160.3125 335.0625 159.98438Q335.25 159.65625 335.25 159.23438Q335.25 158.75 335.07812 158.42188Q334.92188 158.07812 334.59375 157.90625Q334.26562 157.73438 333.76562 157.73438Q333.29688 157.73438 332.95312 157.92188Q332.60938 158.09375 332.40625 158.42188Q332.21875 158.75 332.21875 159.20312L331.125 159.20312Q331.125 158.54688 331.45312 158.01562Q331.78125 157.48438 332.375 157.17188Q332.96875 156.84375 333.76562 156.84375Q334.53125 156.84375 335.10938 157.125Q335.6875 157.39062 336.01562 157.9375Q336.34375 158.46875 336.34375 159.26562Q336.34375 159.59375 336.1875 159.95312Q336.03125 160.3125 335.71875 160.64062Q335.40625 160.95312 334.90625 161.15625Q334.42188 161.35938 333.71875 161.35938L332.79688 161.35938L332.79688 160.70312ZM332.79688 161.59375L332.79688 160.9375L333.71875 160.9375Q334.53125 160.9375 335.0625 161.14062Q335.59375 161.32812 335.90625 161.65625Q336.21875 161.96875 336.34375 162.35938Q336.46875 162.73438 336.46875 163.125Q336.46875 163.71875 336.26562 164.1875Q336.0625 164.64062 335.6875 164.96875Q335.32812 165.28125 334.82812 165.45312Q334.34375 165.625 333.76562 165.625Q333.20312 165.625 332.71875 165.46875Q332.23438 165.29688 331.85938 165.0Q331.48438 164.70312 331.26562 164.26562Q331.0625 163.8125 331.0625 163.25L332.14062 163.25Q332.14062 163.6875 332.32812 164.03125Q332.53125 164.35938 332.89062 164.54688Q333.26562 164.71875 333.76562 164.71875Q334.26562 164.71875 334.625 164.54688Q334.98438 164.375 335.17188 164.03125Q335.375 163.67188 335.375 163.14062Q335.375 162.60938 335.15625 162.26562Q334.9375 161.92188 334.51562 161.76562Q334.10938 161.59375 333.5625 161.59375L332.79688 161.59375Z" fill-rule="nonzero"/><path stroke="#cccccc" stroke-width="1.0" stroke-linecap="butt" d="M198.0 204.0L309.0 240.0" fill-rule="nonzero"/><path fill="#000000" d="M327.875 250.51562L330.03125 252.23438L329.28125 252.9375L327.14062 251.25L327.875 250.51562ZM330.0 246.96875L330.0 247.5Q330.0 248.46875 329.76562 249.23438Q329.53125 249.98438 329.07812 250.51562Q328.625 251.04688 327.98438 251.34375Q327.35938 251.625 326.57812 251.625Q325.82812 251.625 325.1875 251.34375Q324.5625 251.04688 324.10938 250.51562Q323.65625 249.98438 323.39062 249.23438Q323.14062 248.46875 323.14062 247.5L323.14062 246.96875Q323.14062 246.0 323.39062 245.25Q323.64062 244.48438 324.09375 243.95312Q324.5625 243.40625 325.1875 243.125Q325.8125 242.84375 326.57812 242.84375Q327.35938 242.84375 327.98438 243.125Q328.625 243.40625 329.0625 243.95312Q329.51562 244.48438 329.75 245.25Q330.0 246.0 330.0 246.96875ZM328.89062 247.5L328.89062 246.95312Q328.89062 246.1875 328.73438 245.60938Q328.57812 245.01562 328.28125 244.625Q327.98438 244.21875 327.54688 244.01562Q327.125 243.8125 326.57812 243.8125Q326.04688 243.8125 325.625 244.01562Q325.20312 244.21875 324.89062 244.625Q324.59375 245.01562 324.42188 245.60938Q324.26562 246.1875 324.26562 246.95312L324.26562 247.5Q324.26562 248.26562 324.42188 248.85938Q324.59375 249.45312 324.89062 249.85938Q325.20312 250.25 325.625 250.45312Q326.0625 250.65625 326.57812 250.65625Q327.14062 250.65625 327.5625 250.45312Q327.98438 250.25 328.28125 249.85938Q328.57812 249.45312 328.73438 248.85938Q328.89062 248.26562 328.89062 247.5ZM336.96875 248.625L336.96875 249.51562L330.8125 249.51562L330.8125 248.875L334.625 242.96875L335.51562 242.96875L334.5625 244.67188L332.04688 248.625L336.96875 248.625ZM335.78125 242.96875L335.78125 251.5L334.70312 251.5L334.70312 242.96875L335.78125 242.96875Z" fill-rule="nonzero"/><path stroke="#cccccc" stroke-width="1.0" stroke-linecap="butt" d="M198.0 204.0L267.0 298.0" fill-rule="nonzero"/><path fill="#000000" d="M277.875 320.51562L280.03125 322.23438L279.28125 322.9375L277.14062 321.25L277.875 320.51562ZM280.0 316.96875L280.0 317.5Q280.0 318.46875 279.76562 319.23438Q279.53125 319.98438 279.07812 320.51562Q278.625 321.04688 277.98438 321.34375Q277.35938 321.625 276.57812 321.625Q275.82812 321.625 275.1875 321.34375Q274.5625 321.04688 274.10938 320.51562Q273.65625 319.98438 273.39062 319.23438Q273.14062 318.46875 273.14062 317.5L273.14062 316.96875Q273.14062 316.0 273.39062 315.25Q273.64062 314.48438 274.09375 313.95312Q274.5625 313.40625 275.1875 313.125Q275.8125 312.84375 276.57812 312.84375Q277.35938 312.84375 277.98438 313.125Q278.625 313.40625 279.0625 313.95312Q279.51562 314.48438 279.75 315.25Q280.0 316.0 280.0 316.96875ZM278.89062 317.5L278.89062 316.95312Q278.89062 316.1875 278.73438 315.60938Q278.57812 315.01562 278.28125 314.625Q277.98438 314.21875 277.54688 314.01562Q277.125 313.8125 276.57812 313.8125Q276.04688 313.8125 275.625 314.01562Q275.20312 314.21875 274.89062 314.625Q274.59375 315.01562 274.42188 315.60938Q274.26562 316.1875 274.26562 316.95312L274.26562 317.5Q274.26562 318.26562 274.42188 318.85938Q274.59375 319.45312 274.89062 319.85938Q275.20312 320.25 275.625 320.45312Q276.0625 320.65625 276.57812 320.65625Q277.14062 320.65625 277.5625 320.45312Q277.98438 320.25 278.28125 319.85938Q278.57812 319.45312 278.73438 318.85938Q278.89062 318.26562 278.89062 317.5ZM282.57812 317.4375L281.71875 317.21875L282.14062 312.96875L286.51562 312.96875L286.51562 313.96875L283.0625 313.96875L282.79688 316.29688Q283.03125 316.15625 283.39062 316.04688Q283.76562 315.92188 284.23438 315.92188Q284.8125 315.92188 285.28125 316.125Q285.75 316.32812 286.07812 316.70312Q286.42188 317.07812 286.59375 317.60938Q286.76562 318.125 286.76562 318.78125Q286.76562 319.39062 286.59375 319.90625Q286.4375 320.42188 286.09375 320.8125Q285.76562 321.1875 285.25 321.40625Q284.75 321.625 284.0625 321.625Q283.54688 321.625 283.09375 321.48438Q282.64062 321.32812 282.26562 321.03125Q281.90625 320.73438 281.6875 320.29688Q281.46875 319.85938 281.40625 319.25L282.4375 319.25Q282.5 319.73438 282.70312 320.0625Q282.92188 320.39062 283.26562 320.5625Q283.60938 320.71875 284.0625 320.71875Q284.45312 320.71875 284.75 320.59375Q285.04688 320.45312 285.25 320.20312Q285.46875 319.95312 285.57812 319.59375Q285.6875 319.23438 285.6875 318.79688Q285.6875 318.39062 285.5625 318.04688Q285.45312 317.70312 285.23438 317.45312Q285.01562 317.1875 284.70312 317.04688Q284.39062 316.89062 283.96875 316.89062Q283.4375 316.89062 283.15625 317.04688Q282.875 317.1875 282.57812 317.4375Z" fill-rule="nonzero"/><path stroke="#cccccc" stroke-width="1.0" stroke-linecap="butt" d="M198.0 204.0L198.0 321.0" fill-rule="nonzero"/><path fill="#000000" d="M195.875 346.51562L198.03125 348.23438L197.28125 348.9375L195.14062 347.25L195.875 346.51562ZM198.0 342.96875L198.0 343.5Q198.0 344.46875 197.76562 345.23438Q197.53125 345.98438 197.07812 346.51562Q196.625 347.04688 195.98438 347.34375Q195.35938 347.625 194.57812 347.625Q193.82812 347.625 193.1875 347.34375Q192.5625 347.04688 192.10938 346.51562Q191.65625 345.98438 191.39062 345.23438Q191.14062 344.46875 191.14062 343.5L191.14062 342.96875Q191.14062 342.0 191.39062 341.25Q191.64062 340.48438 192.09375 339.95312Q192.5625 339.40625 193.1875 339.125Q193.8125 338.84375 194.57812 338.84375Q195.35938 338.84375 195.98438 339.125Q196.625 339.40625 197.0625 339.95312Q197.51562 340.48438 197.75 341.25Q198.0 342.0 198.0 342.96875ZM196.89062 343.5L196.89062 342.95312Q196.89062 342.1875 196.73438 341.60938Q196.57812 341.01562 196.28125 340.625Q195.98438 340.21875 195.54688 340.01562Q195.125 339.8125 194.57812 339.8125Q194.04688 339.8125 193.625 340.01562Q193.20312 340.21875 192.89062 340.625Q192.59375 341.01562 192.42188 341.60938Q192.26562 342.1875 192.26562 342.95312L192.26562 343.5Q192.26562 344.26562 192.42188 344.85938Q192.59375 345.45312 192.89062 345.85938Q193.20312 346.25 193.625 346.45312Q194.0625 346.65625 194.57812 346.65625Q195.14062 346.65625 195.5625 346.45312Q195.98438 346.25 196.28125 345.85938Q196.57812 345.45312 196.73438 344.85938Q196.89062 344.26562 196.89062 343.5ZM203.375 338.95312L203.46875 338.95312L203.46875 339.875L203.375 339.875Q202.51562 339.875 201.92188 340.15625Q201.34375 340.4375 201.0 340.90625Q200.67188 341.35938 200.51562 341.95312Q200.375 342.53125 200.375 343.125L200.375 344.375Q200.375 344.9375 200.5 345.375Q200.64062 345.8125 200.875 346.125Q201.10938 346.42188 201.40625 346.57812Q201.70312 346.71875 202.01562 346.71875Q202.39062 346.71875 202.6875 346.57812Q202.98438 346.4375 203.1875 346.17188Q203.39062 345.90625 203.48438 345.5625Q203.59375 345.20312 203.59375 344.76562Q203.59375 344.39062 203.5 344.03125Q203.40625 343.67188 203.21875 343.40625Q203.03125 343.125 202.73438 342.96875Q202.4375 342.79688 202.04688 342.79688Q201.59375 342.79688 201.20312 343.01562Q200.8125 343.23438 200.5625 343.59375Q200.3125 343.95312 200.28125 344.35938L199.70312 344.35938Q199.79688 343.70312 200.01562 343.23438Q200.23438 342.76562 200.57812 342.46875Q200.92188 342.17188 201.32812 342.04688Q201.75 341.90625 202.21875 341.90625Q202.85938 341.90625 203.3125 342.15625Q203.78125 342.39062 204.07812 342.79688Q204.39062 343.1875 204.53125 343.6875Q204.67188 344.1875 204.67188 344.71875Q204.67188 345.3125 204.5 345.84375Q204.32812 346.375 203.98438 346.78125Q203.65625 347.17188 203.15625 347.40625Q202.67188 347.625 202.01562 347.625Q201.32812 347.625 200.8125 347.34375Q200.29688 347.04688 199.95312 346.57812Q199.625 346.09375 199.45312 345.51562Q199.28125 344.9375 199.28125 344.34375L199.28125 343.82812Q199.28125 342.92188 199.45312 342.0625Q199.64062 341.1875 200.09375 340.48438Q200.54688 339.78125 201.34375 339.375Q202.14062 338.95312 203.375 338.95312Z" fill-rule="nonzero"/><path stroke="#cccccc" stroke-width="1.0" stroke-linecap="butt" d="M198.0 204.0L129.0 298.0" fill-rule="nonzero"/><path fill="#000000" d="M113.875 320.51562L116.03125 322.23438L115.28125 322.9375L113.140625 321.25L113.875 320.51562ZM116.0 316.96875L116.0 317.5Q116.0 318.46875 115.765625 319.23438Q115.53125 319.98438 115.078125 320.51562Q114.625 321.04688 113.984375 321.34375Q113.359375 321.625 112.578125 321.625Q111.828125 321.625 111.1875 321.34375Q110.5625 321.04688 110.109375 320.51562Q109.65625 319.98438 109.390625 319.23438Q109.140625 318.46875 109.140625 317.5L109.140625 316.96875Q109.140625 316.0 109.390625 315.25Q109.640625 314.48438 110.09375 313.95312Q110.5625 313.40625 111.1875 313.125Q111.8125 312.84375 112.578125 312.84375Q113.359375 312.84375 113.984375 313.125Q114.625 313.40625 115.0625 313.95312Q115.515625 314.48438 115.75 315.25Q116.0 316.0 116.0 316.96875ZM114.890625 317.5L114.890625 316.95312Q114.890625 316.1875 114.734375 315.60938Q114.578125 315.01562 114.28125 314.625Q113.984375 314.21875 113.546875 314.01562Q113.125 313.8125 112.578125 313.8125Q112.046875 313.8125 111.625 314.01562Q111.203125 314.21875 110.890625 314.625Q110.59375 315.01562 110.421875 315.60938Q110.265625 316.1875 110.265625 316.95312L110.265625 317.5Q110.265625 318.26562 110.421875 318.85938Q110.59375 319.45312 110.890625 319.85938Q111.203125 320.25 111.625 320.45312Q112.0625 320.65625 112.578125 320.65625Q113.140625 320.65625 113.5625 320.45312Q113.984375 320.25 114.28125 319.85938Q114.578125 319.45312 114.734375 318.85938Q114.890625 318.26562 114.890625 317.5ZM122.71875 312.96875L122.71875 313.57812L119.1875 321.5L118.046875 321.5L121.578125 313.85938L116.953125 313.85938L116.953125 312.96875L122.71875 312.96875Z" fill-rule="nonzero"/><path stroke="#cccccc" stroke-width="1.0" stroke-linecap="butt" d="M198.0 204.0L87.0 240.0" fill-rule="nonzero"/><path fill="#000000" d="M63.875 250.51562L66.03125 252.23438L65.28125 252.9375L63.140625 251.25L63.875 250.51562ZM66.0 246.96875L66.0 247.5Q66.0 248.46875 65.765625 249.23438Q65.53125 249.98438 65.078125 250.51562Q64.625 251.04688 63.984375 251.34375Q63.359375 251.625 62.578125 251.625Q61.828125 251.625 61.1875 251.34375Q60.5625 251.04688 60.109375 250.51562Q59.65625 249.98438 59.390625 249.23438Q59.140625 248.46875 59.140625 247.5L59.140625 246.96875Q59.140625 246.0 59.390625 245.25Q59.640625 244.48438 60.09375 243.95312Q60.5625 243.40625 61.1875 243.125Q61.8125 242.84375 62.578125 242.84375Q63.359375 242.84375 63.984375 243.125Q64.625 243.40625 65.0625 243.95312Q65.515625 244.48438 65.75 245.25Q66.0 246.0 66.0 246.96875ZM64.890625 247.5L64.890625 246.95312Q64.890625 246.1875 64.734375 245.60938Q64.578125 245.01562 64.28125 244.625Q63.984375 244.21875 63.546875 244.01562Q63.125 243.8125 62.578125 243.8125Q62.046875 243.8125 61.625 244.01562Q61.203125 244.21875 60.890625 244.625Q60.59375 245.01562 60.421875 245.60938Q60.265625 246.1875 60.265625 246.95312L60.265625 247.5Q60.265625 248.26562 60.421875 248.85938Q60.59375 249.45312 60.890625 249.85938Q61.203125 250.25 61.625 250.45312Q62.0625 250.65625 62.578125 250.65625Q63.140625 250.65625 63.5625 250.45312Q63.984375 250.25 64.28125 249.85938Q64.578125 249.45312 64.734375 248.85938Q64.890625 248.26562 64.890625 247.5ZM72.59375 249.1875Q72.59375 249.96875 72.234375 250.51562Q71.875 251.04688 71.25 251.34375Q70.640625 251.625 69.875 251.625Q69.109375 251.625 68.484375 251.34375Q67.875 251.04688 67.515625 250.51562Q67.15625 249.96875 67.15625 249.1875Q67.15625 248.6875 67.359375 248.26562Q67.5625 247.82812 67.921875 247.51562Q68.28125 247.20312 68.765625 247.03125Q69.265625 246.85938 69.859375 246.85938Q70.65625 246.85938 71.265625 247.15625Q71.875 247.45312 72.234375 247.98438Q72.59375 248.51562 72.59375 249.1875ZM71.5 249.17188Q71.5 248.6875 71.296875 248.32812Q71.09375 247.95312 70.71875 247.75Q70.34375 247.54688 69.859375 247.54688Q69.359375 247.54688 69.0 247.75Q68.640625 247.95312 68.4375 248.32812Q68.25 248.6875 68.25 249.17188Q68.25 249.65625 68.4375 250.01562Q68.640625 250.35938 69.0 250.54688Q69.375 250.71875 69.875 250.71875Q70.375 250.71875 70.734375 250.54688Q71.109375 250.35938 71.296875 250.01562Q71.5 249.65625 71.5 249.17188ZM72.390625 245.1875Q72.390625 245.8125 72.0625 246.3125Q71.734375 246.8125 71.15625 247.09375Q70.59375 247.375 69.875 247.375Q69.140625 247.375 68.5625 247.09375Q68.0 246.8125 67.671875 246.3125Q67.359375 245.8125 67.359375 245.1875Q67.359375 244.4375 67.671875 243.92188Q68.0 243.40625 68.5625 243.125Q69.140625 242.84375 69.875 242.84375Q70.609375 242.84375 71.171875 243.125Q71.734375 243.40625 72.0625 243.92188Q72.390625 244.4375 72.390625 245.1875ZM71.3125 245.20312Q71.3125 244.78125 71.125 244.45312Q70.9375 244.125 70.609375 243.9375Q70.296875 243.73438 69.875 243.73438Q69.4375 243.73438 69.109375 243.92188Q68.796875 244.09375 68.625 244.42188Q68.453125 244.75 68.453125 245.20312Q68.453125 245.64062 68.625 245.96875Q68.796875 246.29688 69.125 246.48438Q69.453125 246.67188 69.875 246.67188Q70.296875 246.67188 70.609375 246.48438Q70.9375 246.29688 71.125 245.96875Q71.3125 245.64062 71.3125 245.20312Z" fill-rule="nonzero"/><path stroke="#cccccc" stroke-width="1.0" stroke-linecap="butt" d="M198.0 204.0L87.0 168.0" fill-rule="nonzero"/><path fill="#000000" d="M63.875 164.51562L66.03125 166.23438L65.28125 166.9375L63.140625 165.25L63.875 164.51562ZM66.0 160.96875L66.0 161.5Q66.0 162.46875 65.765625 163.23438Q65.53125 163.98438 65.078125 164.51562Q64.625 165.04688 63.984375 165.34375Q63.359375 165.625 62.578125 165.625Q61.828125 165.625 61.1875 165.34375Q60.5625 165.04688 60.109375 164.51562Q59.65625 163.98438 59.390625 163.23438Q59.140625 162.46875 59.140625 161.5L59.140625 160.96875Q59.140625 160.0 59.390625 159.25Q59.640625 158.48438 60.09375 157.95312Q60.5625 157.40625 61.1875 157.125Q61.8125 156.84375 62.578125 156.84375Q63.359375 156.84375 63.984375 157.125Q64.625 157.40625 65.0625 157.95312Q65.515625 158.48438 65.75 159.25Q66.0 160.0 66.0 160.96875ZM64.890625 161.5L64.890625 160.95312Q64.890625 160.1875 64.734375 159.60938Q64.578125 159.01562 64.28125 158.625Q63.984375 158.21875 63.546875 158.01562Q63.125 157.8125 62.578125 157.8125Q62.046875 157.8125 61.625 158.01562Q61.203125 158.21875 60.890625 158.625Q60.59375 159.01562 60.421875 159.60938Q60.265625 160.1875 60.265625 160.95312L60.265625 161.5Q60.265625 162.26562 60.421875 162.85938Q60.59375 163.45312 60.890625 163.85938Q61.203125 164.25 61.625 164.45312Q62.0625 164.65625 62.578125 164.65625Q63.140625 164.65625 63.5625 164.45312Q63.984375 164.25 64.28125 163.85938Q64.578125 163.45312 64.734375 162.85938Q64.890625 162.26562 64.890625 161.5ZM68.28125 164.59375L68.40625 164.59375Q69.34375 164.59375 69.921875 164.32812Q70.515625 164.0625 70.828125 163.625Q71.140625 163.17188 71.25 162.60938Q71.375 162.04688 71.375 161.46875L71.375 160.15625Q71.375 159.57812 71.234375 159.125Q71.109375 158.67188 70.875 158.375Q70.65625 158.0625 70.359375 157.90625Q70.0625 157.75 69.734375 157.75Q69.359375 157.75 69.0625 157.90625Q68.765625 158.04688 68.5625 158.3125Q68.359375 158.57812 68.25 158.95312Q68.15625 159.3125 68.15625 159.73438Q68.15625 160.125 68.25 160.48438Q68.34375 160.82812 68.53125 161.125Q68.734375 161.40625 69.015625 161.57812Q69.3125 161.75 69.703125 161.75Q70.0625 161.75 70.375 161.60938Q70.703125 161.45312 70.953125 161.20312Q71.203125 160.95312 71.34375 160.64062Q71.5 160.32812 71.515625 159.98438L72.03125 159.98438Q72.03125 160.46875 71.84375 160.9375Q71.65625 161.40625 71.3125 161.79688Q70.984375 162.1875 70.515625 162.42188Q70.0625 162.64062 69.53125 162.64062Q68.890625 162.64062 68.421875 162.40625Q67.96875 162.15625 67.671875 161.75Q67.375 161.32812 67.234375 160.82812Q67.09375 160.3125 67.09375 159.79688Q67.09375 159.1875 67.25 158.65625Q67.421875 158.125 67.75 157.71875Q68.09375 157.3125 68.578125 157.07812Q69.078125 156.84375 69.734375 156.84375Q70.46875 156.84375 70.984375 157.14062Q71.5 157.4375 71.828125 157.9375Q72.15625 158.42188 72.296875 159.04688Q72.453125 159.65625 72.453125 160.29688L72.453125 160.6875Q72.453125 161.35938 72.359375 162.04688Q72.28125 162.71875 72.046875 163.34375Q71.8125 163.96875 71.359375 164.45312Q70.90625 164.9375 70.171875 165.23438Q69.453125 165.51562 68.40625 165.51562L68.28125 165.51562L68.28125 164.59375Z" fill-rule="nonzero"/><path stroke="#cccccc" stroke-width="1.0" stroke-linecap="butt" d="M198.0 204.0L129.0 110.0" fill-rule="nonzero"/><path fill="#000000" d="M110.375 94.515625L112.53125 96.234375L111.78125 96.9375L109.640625 95.25L110.375 94.515625ZM112.5 90.96875L112.5 91.5Q112.5 92.46875 112.265625 93.234375Q112.03125 93.984375 111.578125 94.515625Q111.125 95.046875 110.484375 95.34375Q109.859375 95.625 109.078125 95.625Q108.328125 95.625 107.6875 95.34375Q107.0625 95.046875 106.609375 94.515625Q106.15625 93.984375 105.890625 93.234375Q105.640625 92.46875 105.640625 91.5L105.640625 90.96875Q105.640625 90.0 105.890625 89.25Q106.140625 88.484375 106.59375 87.953125Q107.0625 87.40625 107.6875 87.125Q108.3125 86.84375 109.078125 86.84375Q109.859375 86.84375 110.484375 87.125Q111.125 87.40625 111.5625 87.953125Q112.015625 88.484375 112.25 89.25Q112.5 90.0 112.5 90.96875ZM111.390625 91.5L111.390625 90.953125Q111.390625 90.1875 111.234375 89.609375Q111.078125 89.015625 110.78125 88.625Q110.484375 88.21875 110.046875 88.015625Q109.625 87.8125 109.078125 87.8125Q108.546875 87.8125 108.125 88.015625Q107.703125 88.21875 107.390625 88.625Q107.09375 89.015625 106.921875 89.609375Q106.765625 90.1875 106.765625 90.953125L106.765625 91.5Q106.765625 92.265625 106.921875 92.859375Q107.09375 93.453125 107.390625 93.859375Q107.703125 94.25 108.125 94.453125Q108.5625 94.65625 109.078125 94.65625Q109.640625 94.65625 110.0625 94.453125Q110.484375 94.25 110.78125 93.859375Q111.078125 93.453125 111.234375 92.859375Q111.390625 92.265625 111.390625 91.5ZM117.265625 86.921875L117.265625 95.5L116.1875 95.5L116.1875 88.28125L114.0 89.078125L114.0 88.09375L117.109375 86.921875L117.265625 86.921875ZM126.0625 90.546875L126.0625 91.859375Q126.0625 92.90625 125.875 93.625Q125.6875 94.34375 125.328125 94.78125Q124.984375 95.21875 124.484375 95.421875Q124.0 95.625 123.375 95.625Q122.890625 95.625 122.46875 95.5Q122.046875 95.375 121.71875 95.109375Q121.390625 94.828125 121.15625 94.390625Q120.921875 93.953125 120.796875 93.328125Q120.671875 92.6875 120.671875 91.859375L120.671875 90.546875Q120.671875 89.5 120.859375 88.796875Q121.0625 88.09375 121.40625 87.65625Q121.765625 87.21875 122.25 87.03125Q122.75 86.84375 123.359375 86.84375Q123.859375 86.84375 124.28125 86.96875Q124.703125 87.09375 125.03125 87.359375Q125.359375 87.609375 125.578125 88.046875Q125.8125 88.46875 125.9375 89.09375Q126.0625 89.71875 126.0625 90.546875ZM124.96875 92.03125L124.96875 90.375Q124.96875 89.796875 124.90625 89.359375Q124.84375 88.921875 124.703125 88.609375Q124.578125 88.296875 124.375 88.109375Q124.1875 87.921875 123.9375 87.828125Q123.6875 87.734375 123.359375 87.734375Q122.984375 87.734375 122.671875 87.875Q122.375 88.015625 122.171875 88.328125Q121.96875 88.640625 121.859375 89.15625Q121.765625 89.65625 121.765625 90.375L121.765625 92.03125Q121.765625 92.609375 121.828125 93.046875Q121.90625 93.484375 122.03125 93.8125Q122.171875 94.125 122.359375 94.328125Q122.5625 94.53125 122.8125 94.625Q123.0625 94.71875 123.375 94.71875Q123.78125 94.71875 124.078125 94.578125Q124.375 94.421875 124.578125 94.09375Q124.78125 93.765625 124.875 93.265625Q124.96875 92.75 124.96875 92.03125Z" fill-rule="nonzero"/><path stroke="#cccccc" stroke-width="1.0" stroke-linecap="butt" d="M198.0 204.0L198.0 87.0" fill-rule="nonzero"/><path stroke="#4285f4" stroke-width="2.0" stroke-linecap="butt" d="M198.0 100.0L215.0 180.0L305.0 169.0L238.0 217.0L265.0 297.0L198.0 229.0L136.0 290.0L176.0 211.0L95.0 171.0L178.0 177.0Z" fill-rule="nonzero"/><path fill="#4285f4" d="M200.0 100.0C200.0 101.10457 199.10457 102.0 198.0 102.0C196.89543 102.0 196.0 101.10457 196.0 100.0C196.0 98.89543 196.89543 98.0 198.0 98.0C199.10457 98.0 200.0 98.89543 200.0 100.0Z" fill-rule="nonzero"/><path fill="#4285f4" d="M217.0 180.0C217.0 181.10457 216.10457 182.0 215.0 182.0C213.89543 182.0 213.0 181.10457 213.0 180.0C213.0 178.89543 213.89543 178.0 215.0 178.0C216.10457 178.0 217.0 178.89543 217.0 180.0Z" fill-rule="nonzero"/><path fill="#4285f4" d="M307.0 169.0C307.0 170.10457 306.10458 171.0 305.0 171.0C303.89542 171.0 303.0 170.10457 303.0 169.0C303.0 167.89543 303.89542 167.0 305.0 167.0C306.10458 167.0 307.0 167.89543 307.0 169.0Z" fill-rule="nonzero"/><path fill="#4285f4" d="M240.0 217.0C240.0 218.10457 239.10457 219.0 238.0 219.0C236.89543 219.0 236.0 218.10457 236.0 217.0C236.0 215.89543 236.89543 215.0 238.0 215.0C239.10457 215.0 240.0 215.89543 240.0 217.0Z" fill-rule="nonzero"/><path fill="#4285f4" d="M267.0 297.0C267.0 298.10458 266.10458 299.0 265.0 299.0C263.89542 299.0 263.0 298.10458 263.0 297.0C263.0 295.89542 263.89542 295.0 265.0 295.0C266.10458 295.0 267.0 295.89542 267.0 297.0Z" fill-rule="nonzero"/><path fill="#4285f4" d="M200.0 229.0C200.0 230.10457 199.10457 231.0 198.0 231.0C196.89543 231.0 196.0 230.10457 196.0 229.0C196.0 227.89543 196.89543 227.0 198.0 227.0C199.10457 227.0 200.0 227.89543 200.0 229.0Z" fill-rule="nonzero"/><path fill="#4285f4" d="M138.0 290.0C138.0 291.10458 137.10457 292.0 136.0 292.0C134.89543 292.0 134.0 291.10458 134.0 290.0C134.0 288.89542 134.89543 288.0 136.0 288.0C137.10457 288.0 138.0 288.89542 138.0 290.0Z" fill-rule="nonzero"/><path fill="#4285f4" d="M178.0 211.0C178.0 212.10457 177.10457 213.0 176.0 213.0C174.89543 213.0 174.0 212.10457 174.0 211.0C174.0 209.89543 174.89543 209.0 176.0 209.0C177.10457 209.0 178.0 209.89543 178.0 211.0Z" fill-rule="nonzero"/><path fill="#4285f4" d="M97.0 171.0C97.0 172.10457 96.10457 173.0 95.0 173.0C93.89543 173.0 93.0 172.10457 93.0 171.0C93.0 169.89543 93.89543 169.0 95.0 169.0C96.10457 169.0 97.0 169.89543 97.0 171.0Z" fill-rule="nonzero"/><path fill="#4285f4" d="M180.0 177.0C180.0 178.10457 179.10457 179.0 178.0 179.0C176.89543 179.0 176.0 178.10457 176.0 177.0C176.0 175.89543 176.89543 175.0 178.0 175.0C179.10457 175.0 180.0 175.89543 180.0 177.0Z" fill-rule="nonzero"/><path fill="#757575" d="M79.90625 32.95625L81.6875 32.8Q81.8125 33.8625 82.265625 34.55Q82.734375 35.2375 83.703125 35.675Q84.6875 36.096874 85.921875 36.096874Q87.0 36.096874 87.828125 35.784374Q88.65625 35.45625 89.0625 34.89375Q89.46875 34.33125 89.46875 33.659374Q89.46875 32.9875 89.078125 32.4875Q88.6875 31.9875 87.796875 31.64375Q87.21875 31.409374 85.234375 30.940624Q83.265625 30.471874 82.484375 30.05Q81.453125 29.51875 80.953125 28.721874Q80.453125 27.925 80.453125 26.940624Q80.453125 25.846874 81.0625 24.909374Q81.671875 23.971874 82.859375 23.4875Q84.046875 22.9875 85.484375 22.9875Q87.078125 22.9875 88.296875 23.503124Q89.515625 24.01875 90.15625 25.01875Q90.8125 26.003124 90.859375 27.26875L89.046875 27.409374Q88.90625 26.05 88.0625 25.3625Q87.21875 24.659374 85.5625 24.659374Q83.84375 24.659374 83.046875 25.3Q82.265625 25.925 82.265625 26.8Q82.265625 27.58125 82.828125 28.08125Q83.375 28.58125 85.6875 29.096874Q88.0 29.6125 88.859375 30.003124Q90.109375 30.58125 90.703125 31.471874Q91.296875 32.346874 91.296875 33.503124Q91.296875 34.64375 90.640625 35.659374Q89.984375 36.675 88.75 37.2375Q87.53125 37.8 86.0 37.8Q84.0625 37.8 82.75 37.2375Q81.4375 36.659374 80.6875 35.51875Q79.9375 34.378124 79.90625 32.95625ZM102.9375 23.2375L104.828125 23.2375L104.828125 31.503124Q104.828125 33.659374 104.34375 34.940624Q103.859375 36.20625 102.578125 37.003124Q101.3125 37.8 99.234375 37.8Q97.21875 37.8 95.9375 37.1125Q94.671875 36.409374 94.125 35.096874Q93.578125 33.784374 93.578125 31.503124L93.578125 23.2375L95.46875 23.2375L95.46875 31.4875Q95.46875 33.3625 95.8125 34.253124Q96.15625 35.128124 97.0 35.6125Q97.84375 36.08125 99.078125 36.08125Q101.15625 36.08125 102.046875 35.14375Q102.9375 34.190624 102.9375 31.4875L102.9375 23.2375ZM105.90625 32.95625L107.6875 32.8Q107.8125 33.8625 108.265625 34.55Q108.734375 35.2375 109.703125 35.675Q110.6875 36.096874 111.921875 36.096874Q113.0 36.096874 113.828125 35.784374Q114.65625 35.45625 115.0625 34.89375Q115.46875 34.33125 115.46875 33.659374Q115.46875 32.9875 115.078125 32.4875Q114.6875 31.9875 113.796875 31.64375Q113.21875 31.409374 111.234375 30.940624Q109.265625 30.471874 108.484375 30.05Q107.453125 29.51875 106.953125 28.721874Q106.453125 27.925 106.453125 26.940624Q106.453125 25.846874 107.0625 24.909374Q107.671875 23.971874 108.859375 23.4875Q110.046875 22.9875 111.484375 22.9875Q113.078125 22.9875 114.296875 23.503124Q115.515625 24.01875 116.15625 25.01875Q116.8125 26.003124 116.859375 27.26875L115.046875 27.409374Q114.90625 26.05 114.0625 25.3625Q113.21875 24.659374 111.5625 24.659374Q109.84375 24.659374 109.046875 25.3Q108.265625 25.925 108.265625 26.8Q108.265625 27.58125 108.828125 28.08125Q109.375 28.58125 111.6875 29.096874Q114.0 29.6125 114.859375 30.003124Q116.109375 30.58125 116.703125 31.471874Q117.296875 32.346874 117.296875 33.503124Q117.296875 34.64375 116.640625 35.659374Q115.984375 36.675 114.75 37.2375Q113.53125 37.8 112.0 37.8Q110.0625 37.8 108.75 37.2375Q107.4375 36.659374 106.6875 35.51875Q105.9375 34.378124 105.90625 32.95625ZM136.39062 36.01875Q137.71875 36.925 138.82812 37.346874L138.26562 38.659374Q136.71875 38.1125 135.1875 36.909374Q133.59375 37.8 131.67188 37.8Q129.73438 37.8 128.14062 36.8625Q126.5625 35.925 125.703125 34.221874Q124.859375 32.51875 124.859375 30.39375Q124.859375 28.26875 125.71875 26.534374Q126.578125 24.8 128.15625 23.89375Q129.75 22.971874 131.71875 22.971874Q133.70312 22.971874 135.28125 23.925Q136.875 24.8625 137.70312 26.565624Q138.54688 28.253124 138.54688 30.378124Q138.54688 32.14375 138.01562 33.565624Q137.48438 34.971874 136.39062 36.01875ZM132.21875 33.596874Q133.85938 34.05 134.92188 34.95625Q136.59375 33.440624 136.59375 30.378124Q136.59375 28.64375 136.0 27.346874Q135.42188 26.05 134.28125 25.33125Q133.14062 24.6125 131.71875 24.6125Q129.60938 24.6125 128.20312 26.065624Q126.8125 27.503124 126.8125 30.39375Q126.8125 33.190624 128.1875 34.690624Q129.57812 36.175 131.71875 36.175Q132.73438 36.175 133.64062 35.784374Q132.75 35.221874 131.76562 34.971874L132.21875 33.596874ZM148.10938 37.55L148.10938 36.01875Q146.90625 37.784374 144.82812 37.784374Q143.90625 37.784374 143.10938 37.440624Q142.3125 37.08125 141.92188 36.55Q141.54688 36.01875 141.39062 35.2375Q141.28125 34.721874 141.28125 33.596874L141.28125 27.175L143.03125 27.175L143.03125 32.925Q143.03125 34.3 143.14062 34.784374Q143.3125 35.471874 143.84375 35.878124Q144.39062 36.26875 145.17188 36.26875Q145.96875 36.26875 146.65625 35.8625Q147.35938 35.45625 147.64062 34.76875Q147.9375 34.065624 147.9375 32.7375L147.9375 27.175L149.6875 27.175L149.6875 37.55L148.10938 37.55ZM158.42188 34.20625L160.23438 34.440624Q159.8125 36.01875 158.64062 36.909374Q157.48438 37.784374 155.67188 37.784374Q153.40625 37.784374 152.0625 36.39375Q150.73438 34.9875 150.73438 32.45625Q150.73438 29.83125 152.07812 28.39375Q153.42188 26.940624 155.57812 26.940624Q157.65625 26.940624 158.96875 28.3625Q160.29688 29.76875 160.29688 32.346874Q160.29688 32.503124 160.28125 32.815624L152.54688 32.815624Q152.64062 34.51875 153.51562 35.425Q154.39062 36.33125 155.6875 36.33125Q156.65625 36.33125 157.32812 35.83125Q158.01562 35.315624 158.42188 34.20625ZM152.64062 31.3625L158.4375 31.3625Q158.32812 30.065624 157.78125 29.409374Q156.9375 28.39375 155.59375 28.39375Q154.39062 28.39375 153.5625 29.20625Q152.73438 30.003124 152.64062 31.3625ZM161.60938 34.45625L163.35938 34.175Q163.5 35.221874 164.17188 35.784374Q164.84375 36.33125 166.04688 36.33125Q167.25 36.33125 167.82812 35.846874Q168.42188 35.346874 168.42188 34.690624Q168.42188 34.096874 167.90625 33.753124Q167.54688 33.51875 166.10938 33.159374Q164.17188 32.659374 163.42188 32.315624Q162.6875 31.95625 162.29688 31.33125Q161.90625 30.690624 161.90625 29.925Q161.90625 29.2375 162.21875 28.64375Q162.54688 28.05 163.09375 27.659374Q163.5 27.3625 164.20312 27.159374Q164.92188 26.940624 165.73438 26.940624Q166.95312 26.940624 167.875 27.3Q168.79688 27.64375 169.23438 28.253124Q169.67188 28.846874 169.84375 29.846874L168.125 30.08125Q168.0 29.284374 167.4375 28.846874Q166.875 28.39375 165.85938 28.39375Q164.64062 28.39375 164.125 28.8Q163.60938 29.190624 163.60938 29.721874Q163.60938 30.065624 163.82812 30.346874Q164.03125 30.628124 164.5 30.815624Q164.76562 30.909374 166.04688 31.253124Q167.92188 31.753124 168.65625 32.08125Q169.39062 32.39375 169.8125 33.003124Q170.23438 33.596874 170.23438 34.503124Q170.23438 35.378124 169.71875 36.159374Q169.20312 36.940624 168.23438 37.3625Q167.26562 37.784374 166.04688 37.784374Q164.03125 37.784374 162.96875 36.940624Q161.90625 36.096874 161.60938 34.45625ZM176.15625 35.971874L176.40625 37.534374Q175.67188 37.690624 175.07812 37.690624Q174.125 37.690624 173.59375 37.39375Q173.07812 37.08125 172.85938 36.596874Q172.64062 36.096874 172.64062 34.51875L172.64062 28.55L171.35938 28.55L171.35938 27.175L172.64062 27.175L172.64062 24.6125L174.39062 23.55L174.39062 27.175L176.15625 27.175L176.15625 28.55L174.39062 28.55L174.39062 34.6125Q174.39062 35.3625 174.48438 35.58125Q174.57812 35.784374 174.78125 35.925Q175.0 36.05 175.39062 36.05Q175.67188 36.05 176.15625 35.971874ZM178.32812 25.253124L178.32812 23.2375L180.09375 23.2375L180.09375 25.253124L178.32812 25.253124ZM178.32812 37.55L178.32812 27.175L180.09375 27.175L180.09375 37.55L178.32812 37.55ZM181.67188 32.3625Q181.67188 29.4875 183.26562 28.096874Q184.60938 26.940624 186.53125 26.940624Q188.67188 26.940624 190.01562 28.346874Q191.375 29.753124 191.375 32.221874Q191.375 34.221874 190.78125 35.378124Q190.1875 36.51875 189.03125 37.159374Q187.89062 37.784374 186.53125 37.784374Q184.34375 37.784374 183.0 36.39375Q181.67188 34.9875 181.67188 32.3625ZM183.46875 32.3625Q183.46875 34.3625 184.32812 35.346874Q185.20312 36.33125 186.53125 36.33125Q187.84375 36.33125 188.70312 35.346874Q189.57812 34.346874 189.57812 32.3Q189.57812 30.378124 188.70312 29.39375Q187.82812 28.39375 186.53125 28.39375Q185.20312 28.39375 184.32812 29.39375Q183.46875 30.378124 183.46875 32.3625ZM193.3125 37.55L193.3125 27.175L194.90625 27.175L194.90625 28.659374Q196.04688 26.940624 198.20312 26.940624Q199.14062 26.940624 199.92188 27.284374Q200.71875 27.6125 201.10938 28.159374Q201.5 28.70625 201.65625 29.45625Q201.75 29.95625 201.75 31.175L201.75 37.55L199.98438 37.55L199.98438 31.2375Q199.98438 30.159374 199.78125 29.628124Q199.57812 29.096874 199.04688 28.784374Q198.53125 28.471874 197.82812 28.471874Q196.70312 28.471874 195.89062 29.190624Q195.07812 29.89375 195.07812 31.878124L195.07812 37.55L193.3125 37.55ZM203.3125 37.55L203.3125 27.175L204.90625 27.175L204.90625 28.659374Q206.04688 26.940624 208.20312 26.940624Q209.14062 26.940624 209.92188 27.284374Q210.71875 27.6125 211.10938 28.159374Q211.5 28.70625 211.65625 29.45625Q211.75 29.95625 211.75 31.175L211.75 37.55L209.98438 37.55L209.98438 31.2375Q209.98438 30.159374 209.78125 29.628124Q209.57812 29.096874 209.04688 28.784374Q208.53125 28.471874 207.82812 28.471874Q206.70312 28.471874 205.89062 29.190624Q205.07812 29.89375 205.07812 31.878124L205.07812 37.55L203.3125 37.55ZM220.09375 36.26875Q219.10938 37.096874 218.20312 37.440624Q217.29688 37.784374 216.26562 37.784374Q214.5625 37.784374 213.64062 36.95625Q212.71875 36.1125 212.71875 34.815624Q212.71875 34.05 213.0625 33.425Q213.42188 32.8 213.98438 32.425Q214.54688 32.034374 215.25 31.83125Q215.76562 31.70625 216.8125 31.565624Q218.9375 31.315624 219.9375 30.971874Q219.95312 30.6125 219.95312 30.503124Q219.95312 29.440624 219.45312 28.9875Q218.78125 28.39375 217.45312 28.39375Q216.20312 28.39375 215.60938 28.83125Q215.03125 29.26875 214.75 30.378124L213.03125 30.14375Q213.26562 29.034374 213.79688 28.3625Q214.32812 27.675 215.34375 27.315624Q216.35938 26.940624 217.70312 26.940624Q219.03125 26.940624 219.85938 27.253124Q220.6875 27.565624 221.07812 28.05Q221.46875 28.51875 221.625 29.2375Q221.71875 29.690624 221.71875 30.8625L221.71875 33.20625Q221.71875 35.659374 221.82812 36.315624Q221.9375 36.95625 222.28125 37.55L220.4375 37.55Q220.17188 37.003124 220.09375 36.26875ZM219.9375 32.346874Q218.98438 32.7375 217.0625 33.003124Q215.98438 33.159374 215.53125 33.3625Q215.09375 33.55 214.84375 33.925Q214.59375 34.3 214.59375 34.76875Q214.59375 35.471874 215.125 35.940624Q215.65625 36.409374 216.6875 36.409374Q217.70312 36.409374 218.48438 35.971874Q219.28125 35.51875 219.65625 34.753124Q219.9375 34.14375 219.9375 32.9875L219.9375 32.346874ZM224.32812 25.253124L224.32812 23.2375L226.09375 23.2375L226.09375 25.253124L224.32812 25.253124ZM224.32812 37.55L224.32812 27.175L226.09375 27.175L226.09375 37.55L224.32812 37.55ZM228.29688 37.55L228.29688 27.175L229.875 27.175L229.875 28.753124Q230.48438 27.64375 231.0 27.3Q231.51562 26.940624 232.125 26.940624Q233.01562 26.940624 233.9375 27.503124L233.32812 29.14375Q232.6875 28.753124 232.04688 28.753124Q231.46875 28.753124 231.0 29.1125Q230.54688 29.45625 230.34375 30.065624Q230.0625 31.003124 230.0625 32.1125L230.0625 37.55L228.29688 37.55ZM242.42188 34.20625L244.23438 34.440624Q243.8125 36.01875 242.64062 36.909374Q241.48438 37.784374 239.67188 37.784374Q237.40625 37.784374 236.0625 36.39375Q234.73438 34.9875 234.73438 32.45625Q234.73438 29.83125 236.07812 28.39375Q237.42188 26.940624 239.57812 26.940624Q241.65625 26.940624 242.96875 28.3625Q244.29688 29.76875 244.29688 32.346874Q244.29688 32.503124 244.28125 32.815624L236.54688 32.815624Q236.64062 34.51875 237.51562 35.425Q238.39062 36.33125 239.6875 36.33125Q240.65625 36.33125 241.32812 35.83125Q242.01562 35.315624 242.42188 34.20625ZM236.64062 31.3625L242.4375 31.3625Q242.32812 30.065624 241.78125 29.409374Q240.9375 28.39375 239.59375 28.39375Q238.39062 28.39375 237.5625 29.20625Q236.73438 30.003124 236.64062 31.3625ZM252.57812 37.55L252.57812 23.2375L258.92188 23.2375Q260.82812 23.2375 261.82812 23.628124Q262.82812 24.003124 263.42188 24.9875Q264.01562 25.95625 264.01562 27.14375Q264.01562 28.659374 263.03125 29.70625Q262.04688 30.753124 259.98438 31.034374Q260.73438 31.39375 261.125 31.753124Q261.95312 32.503124 262.70312 33.659374L265.1875 37.55L262.8125 37.55L260.90625 34.565624Q260.07812 33.284374 259.54688 32.596874Q259.01562 31.909374 258.57812 31.64375Q258.15625 31.3625 257.71875 31.253124Q257.39062 31.190624 256.67188 31.190624L254.46875 31.190624L254.46875 37.55L252.57812 37.55ZM254.46875 29.55L258.54688 29.55Q259.84375 29.55 260.5625 29.284374Q261.29688 29.01875 261.67188 28.425Q262.0625 27.83125 262.0625 27.14375Q262.0625 26.128124 261.32812 25.471874Q260.59375 24.815624 259.0 24.815624L254.46875 24.815624L254.46875 29.55ZM273.42188 34.20625L275.23438 34.440624Q274.8125 36.01875 273.64062 36.909374Q272.48438 37.784374 270.67188 37.784374Q268.40625 37.784374 267.0625 36.39375Q265.73438 34.9875 265.73438 32.45625Q265.73438 29.83125 267.07812 28.39375Q268.42188 26.940624 270.57812 26.940624Q272.65625 26.940624 273.96875 28.3625Q275.29688 29.76875 275.29688 32.346874Q275.29688 32.503124 275.28125 32.815624L267.54688 32.815624Q267.64062 34.51875 268.51562 35.425Q269.39062 36.33125 270.6875 36.33125Q271.65625 36.33125 272.32812 35.83125Q273.01562 35.315624 273.42188 34.20625ZM267.64062 31.3625L273.4375 31.3625Q273.32812 30.065624 272.78125 29.409374Q271.9375 28.39375 270.59375 28.39375Q269.39062 28.39375 268.5625 29.20625Q267.73438 30.003124 267.64062 31.3625ZM276.60938 34.45625L278.35938 34.175Q278.5 35.221874 279.17188 35.784374Q279.84375 36.33125 281.04688 36.33125Q282.25 36.33125 282.82812 35.846874Q283.42188 35.346874 283.42188 34.690624Q283.42188 34.096874 282.90625 33.753124Q282.54688 33.51875 281.10938 33.159374Q279.17188 32.659374 278.42188 32.315624Q277.6875 31.95625 277.29688 31.33125Q276.90625 30.690624 276.90625 29.925Q276.90625 29.2375 277.21875 28.64375Q277.54688 28.05 278.09375 27.659374Q278.5 27.3625 279.20312 27.159374Q279.92188 26.940624 280.73438 26.940624Q281.95312 26.940624 282.875 27.3Q283.79688 27.64375 284.23438 28.253124Q284.67188 28.846874 284.84375 29.846874L283.125 30.08125Q283.0 29.284374 282.4375 28.846874Q281.875 28.39375 280.85938 28.39375Q279.64062 28.39375 279.125 28.8Q278.60938 29.190624 278.60938 29.721874Q278.60938 30.065624 278.82812 30.346874Q279.03125 30.628124 279.5 30.815624Q279.76562 30.909374 281.04688 31.253124Q282.92188 31.753124 283.65625 32.08125Q284.39062 32.39375 284.8125 33.003124Q285.23438 33.596874 285.23438 34.503124Q285.23438 35.378124 284.71875 36.159374Q284.20312 36.940624 283.23438 37.3625Q282.26562 37.784374 281.04688 37.784374Q279.03125 37.784374 277.96875 36.940624Q276.90625 36.096874 276.60938 34.45625ZM294.10938 37.55L294.10938 36.01875Q292.90625 37.784374 290.82812 37.784374Q289.90625 37.784374 289.10938 37.440624Q288.3125 37.08125 287.92188 36.55Q287.54688 36.01875 287.39062 35.2375Q287.28125 34.721874 287.28125 33.596874L287.28125 27.175L289.03125 27.175L289.03125 32.925Q289.03125 34.3 289.14062 34.784374Q289.3125 35.471874 289.84375 35.878124Q290.39062 36.26875 291.17188 36.26875Q291.96875 36.26875 292.65625 35.8625Q293.35938 35.45625 293.64062 34.76875Q293.9375 34.065624 293.9375 32.7375L293.9375 27.175L295.6875 27.175L295.6875 37.55L294.10938 37.55ZM297.28125 37.55L297.28125 23.2375L299.03125 23.2375L299.03125 37.55L297.28125 37.55ZM305.15625 35.971874L305.40625 37.534374Q304.67188 37.690624 304.07812 37.690624Q303.125 37.690624 302.59375 37.39375Q302.07812 37.08125 301.85938 36.596874Q301.64062 36.096874 301.64062 34.51875L301.64062 28.55L300.35938 28.55L300.35938 27.175L301.64062 27.175L301.64062 24.6125L303.39062 23.55L303.39062 27.175L305.15625 27.175L305.15625 28.55L303.39062 28.55L303.39062 34.6125Q303.39062 35.3625 303.48438 35.58125Q303.57812 35.784374 303.78125 35.925Q304.0 36.05 304.39062 36.05Q304.67188 36.05 305.15625 35.971874ZM306.60938 34.45625L308.35938 34.175Q308.5 35.221874 309.17188 35.784374Q309.84375 36.33125 311.04688 36.33125Q312.25 36.33125 312.82812 35.846874Q313.42188 35.346874 313.42188 34.690624Q313.42188 34.096874 312.90625 33.753124Q312.54688 33.51875 311.10938 33.159374Q309.17188 32.659374 308.42188 32.315624Q307.6875 31.95625 307.29688 31.33125Q306.90625 30.690624 306.90625 29.925Q306.90625 29.2375 307.21875 28.64375Q307.54688 28.05 308.09375 27.659374Q308.5 27.3625 309.20312 27.159374Q309.92188 26.940624 310.73438 26.940624Q311.95312 26.940624 312.875 27.3Q313.79688 27.64375 314.23438 28.253124Q314.67188 28.846874 314.84375 29.846874L313.125 30.08125Q313.0 29.284374 312.4375 28.846874Q311.875 28.39375 310.85938 28.39375Q309.64062 28.39375 309.125 28.8Q308.60938 29.190624 308.60938 29.721874Q308.60938 30.065624 308.82812 30.346874Q309.03125 30.628124 309.5 30.815624Q309.76562 30.909374 311.04688 31.253124Q312.92188 31.753124 313.65625 32.08125Q314.39062 32.39375 314.8125 33.003124Q315.23438 33.596874 315.23438 34.503124Q315.23438 35.378124 314.71875 36.159374Q314.20312 36.940624 313.23438 37.3625Q312.26562 37.784374 311.04688 37.784374Q309.03125 37.784374 307.96875 36.940624Q306.90625 36.096874 306.60938 34.45625Z" fill-rule="nonzero"/></svg>